<svg version="1.1" id="Layer_1" xmlns="http://www.w3.org/2000/svg" xmlns:xlink="http://www.w3.org/1999/xlink" x="0px" y="0px"
                width="50%" viewBox="0 0 600 598" enable-background="new 0 0 600 598" xml:space="preserve">
            <path fill="#ffffff00" opacity="1.000000" stroke="none" 
                d="
            M274.000000,599.000000 
                C182.666672,599.000000 91.833336,599.000000 1.000000,599.000000 
                C1.000000,399.666656 1.000000,200.333328 1.000000,1.000000 
                C201.000000,1.000000 401.000000,1.000000 601.000000,1.000000 
                C601.000000,200.333328 601.000000,399.666656 601.000000,599.000000 
                C492.166656,599.000000 383.333344,599.000000 274.000000,599.000000 
            M308.585663,259.102936 
                C304.836548,267.512817 301.087433,275.922699 296.847168,285.434326 
                C272.882812,231.380997 249.509338,178.660477 225.730255,125.025063 
                C189.306854,207.175339 153.377548,288.211243 117.219261,369.763550 
                C119.307777,369.936462 120.577080,370.132965 121.846458,370.133423 
                C166.344193,370.149292 210.842056,370.105896 255.339462,370.230194 
                C258.631439,370.239380 259.902374,368.908844 261.106567,366.169403 
                C272.090363,341.181702 283.204498,316.251282 294.294922,291.310516 
                C294.980255,289.769318 295.786499,288.281921 296.888184,286.060242 
                C298.028412,288.356537 298.734344,289.653656 299.331360,290.999084 
                C310.334961,315.794800 321.388794,340.568726 332.246613,365.428192 
                C333.771606,368.919769 335.494720,370.280853 339.541870,370.264679 
                C385.872131,370.079651 432.203369,370.146942 478.534363,370.146942 
                C480.166321,370.146942 481.798248,370.146942 484.206421,370.146942 
                C446.669464,285.479492 409.404968,201.426605 371.762756,116.521698 
                C350.523682,164.447571 329.704407,211.426163 308.585663,259.102936 
            M290.000153,476.498230 
                C289.017059,477.771423 288.033997,479.044617 286.720581,480.745605 
                C278.149292,468.665039 269.893341,457.028900 260.959076,444.436768 
                C260.959076,463.059998 260.959076,480.340790 260.959076,497.759460 
                C263.509796,497.759460 265.923615,497.759460 268.935791,497.759460 
                C268.935791,488.528656 268.935791,479.543518 268.935791,469.203644 
                C275.323578,477.979492 280.850494,485.572662 286.703522,493.613831 
                C292.735596,485.169220 298.469696,477.141815 304.203796,469.114380 
                C304.573975,469.211060 304.944183,469.307739 305.314362,469.404419 
                C305.314362,478.879913 305.314362,488.355408 305.314362,497.859619 
                C308.313843,497.859619 310.621002,497.859619 313.093597,497.859619 
                C313.093597,480.303314 313.093597,462.905426 313.093597,444.347565 
                C305.112885,455.466309 297.771210,465.694763 290.000153,476.498230 
            M202.047562,488.413300 
                C208.787659,496.521576 217.402969,499.641144 227.770782,498.051270 
                C241.667389,495.920227 251.618484,481.750305 249.210236,467.546173 
                C246.807068,453.372040 232.650513,443.078674 219.030151,445.601959 
                C198.809906,449.347870 190.197205,470.233887 202.047562,488.413300 
            M464.075531,465.500427 
                C464.075531,476.259247 464.075531,487.018066 464.075531,497.685394 
                C467.158966,497.685394 469.569336,497.685394 472.417297,497.685394 
                C472.417297,491.614197 472.417297,485.864777 472.417297,480.179443 
                C480.729218,479.507111 480.729309,479.507050 484.822968,485.842957 
                C486.358551,488.219604 487.887360,490.600647 489.430054,492.972656 
                C493.193695,498.759552 494.311554,499.154236 501.586639,497.164154 
                C497.612823,490.809540 493.669220,484.503296 489.629730,478.043671 
                C490.533325,477.301147 491.157593,476.798553 491.770721,476.282776 
                C497.498657,471.464355 498.874115,465.208374 497.376892,458.227600 
                C495.863495,451.171387 490.831024,447.222748 484.120850,446.424438 
                C477.629150,445.652161 470.973602,446.257050 464.075531,446.257050 
                C464.075531,452.563232 464.075531,458.531952 464.075531,465.500427 
            M103.853867,497.995819 
                C115.099785,497.995819 126.345695,497.995819 137.521149,497.995819 
                C137.521149,494.969025 137.521149,492.699646 137.521149,489.901337 
                C128.380676,489.901337 119.482521,489.901337 110.519241,489.901337 
                C110.519241,485.058533 110.519241,480.751251 110.519241,475.869873 
                C118.225601,475.869873 125.798363,475.869873 133.620270,475.869873 
                C133.620270,473.038422 133.620270,470.778076 133.620270,468.004333 
                C125.994888,468.004333 118.410591,468.004333 110.637451,468.004333 
                C110.637451,463.098328 110.637451,458.703796 110.637451,453.540588 
                C119.439362,453.540588 127.989273,453.540588 136.544037,453.540588 
                C136.544037,450.659485 136.544037,448.551300 136.544037,446.282227 
                C125.112930,446.282227 113.918144,446.282227 102.221619,446.282227 
                C102.221619,455.925476 102.129822,465.230255 102.250008,474.532318 
                C102.350243,482.289398 102.699020,490.043213 103.853867,497.995819 
            M430.509338,498.016602 
                C437.770844,498.016602 445.032318,498.016602 452.236023,498.016602 
                C452.236023,494.958527 452.236023,492.568665 452.236023,489.873047 
                C443.067047,489.873047 434.269440,489.873047 425.455627,489.873047 
                C425.455627,485.123413 425.455627,480.693695 425.455627,475.675354 
                C433.260895,475.675354 440.822296,475.675354 448.448303,475.675354 
                C448.448303,472.817841 448.448303,470.562805 448.448303,467.835266 
                C440.607300,467.835266 433.031708,467.835266 425.335480,467.835266 
                C425.335480,463.042969 425.335480,458.729828 425.335480,453.697205 
                C434.023285,453.697205 442.601196,453.697205 451.303894,453.697205 
                C451.303894,450.732727 451.303894,448.495941 451.303894,446.188110 
                C439.902252,446.188110 428.807739,446.188110 417.394287,446.188110 
                C417.394287,463.494751 417.394287,480.553253 417.394287,498.016602 
                C421.580292,498.016602 425.546844,498.016602 430.509338,498.016602 
            M327.959412,449.661926 
                C327.959412,465.707336 327.959412,481.752777 327.959412,497.775330 
                C339.956146,497.775330 351.374237,497.775330 362.921021,497.775330 
                C362.921021,495.144470 362.921021,492.753265 362.921021,489.809753 
                C353.798370,489.809753 344.914551,489.809753 336.304993,489.809753 
                C336.304993,484.842651 336.304993,480.440521 336.304993,475.657135 
                C344.098480,475.657135 351.508636,475.657135 359.101929,475.657135 
                C359.101929,472.976410 359.101929,470.697632 359.101929,467.911682 
                C351.414642,467.911682 343.858154,467.911682 336.213867,467.911682 
                C336.213867,463.013519 336.213867,458.625244 336.213867,453.652588 
                C344.917786,453.652588 353.336578,453.652588 361.934448,453.652588 
                C361.934448,450.820587 361.934448,448.579224 361.934448,445.954254 
                C351.251709,445.954254 340.803101,445.893372 330.358612,446.072601 
                C329.544708,446.086609 328.759644,447.781097 327.959412,449.661926 
            M158.710281,494.872925 
                C168.632523,499.970520 178.326096,499.899475 188.148895,493.857269 
                C186.896057,491.300537 185.829330,489.123596 184.761353,486.944092 
                C174.198349,492.305328 165.032257,491.434570 159.289032,484.764954 
                C153.884827,478.489044 153.101028,467.871460 158.258011,461.052429 
                C160.447495,458.157288 163.791611,455.777832 167.098907,454.163818 
                C173.049408,451.259827 178.624283,454.146088 184.144150,457.011871 
                C185.263245,454.257172 186.231094,451.874786 187.166382,449.572571 
                C173.273163,441.917847 158.251266,444.877075 150.834076,456.342712 
                C142.654617,468.986786 145.811707,485.550385 158.710281,494.872925 
            M373.922485,453.912109 
                C377.203644,453.912109 380.484802,453.912109 384.335236,453.912109 
                C384.335236,468.624054 384.335236,483.177765 384.335236,497.790863 
                C387.341492,497.790863 389.771118,497.790863 392.680298,497.790863 
                C392.680298,483.156403 392.680298,468.759460 392.680298,454.176147 
                C397.358276,453.923889 401.584229,453.696045 405.844971,453.466309 
                C405.844971,450.697174 405.844971,448.439728 405.844971,446.196045 
                C394.333099,446.196045 383.084167,446.196045 370.630981,446.196045 
                C371.540253,449.122986 372.280792,451.506866 373.922485,453.912109 
            z"/>
            <path fill="#378CE2" opacity="1.000000" stroke="none" 
                d="
            M308.735413,258.753845 
                C329.704407,211.426163 350.523682,164.447571 371.762756,116.521698 
                C409.404968,201.426605 446.669464,285.479492 484.206421,370.146942 
                C481.798248,370.146942 480.166321,370.146942 478.534363,370.146942 
                C432.203369,370.146942 385.872131,370.079651 339.541870,370.264679 
                C335.494720,370.280853 333.771606,368.919769 332.246613,365.428192 
                C321.388794,340.568726 310.334961,315.794800 299.331360,290.999084 
                C298.734344,289.653656 298.028412,288.356537 296.888184,286.060242 
                C295.786499,288.281921 294.980255,289.769318 294.294922,291.310516 
                C283.204498,316.251282 272.090363,341.181702 261.106567,366.169403 
                C259.902374,368.908844 258.631439,370.239380 255.339462,370.230194 
                C210.842056,370.105896 166.344193,370.149292 121.846458,370.133423 
                C120.577080,370.132965 119.307777,369.936462 117.219261,369.763550 
                C153.377548,288.211243 189.306854,207.175339 225.730255,125.025063 
                C249.509338,178.660477 272.882812,231.380997 296.847168,285.434326 
                C301.087433,275.922699 304.836548,267.512817 308.735413,258.753845 
            z"/>
            <path fill="#0F3596" opacity="1.000000" stroke="none" 
                d="
            M290.214844,476.210693 
                C297.771210,465.694763 305.112885,455.466309 313.093597,444.347565 
                C313.093597,462.905426 313.093597,480.303314 313.093597,497.859619 
                C310.621002,497.859619 308.313843,497.859619 305.314362,497.859619 
                C305.314362,488.355408 305.314362,478.879913 305.314362,469.404419 
                C304.944183,469.307739 304.573975,469.211060 304.203796,469.114380 
                C298.469696,477.141815 292.735596,485.169220 286.703522,493.613831 
                C280.850494,485.572662 275.323578,477.979492 268.935791,469.203644 
                C268.935791,479.543518 268.935791,488.528656 268.935791,497.759460 
                C265.923615,497.759460 263.509796,497.759460 260.959076,497.759460 
                C260.959076,480.340790 260.959076,463.059998 260.959076,444.436768 
                C269.893341,457.028900 278.149292,468.665039 286.720581,480.745605 
                C288.033997,479.044617 289.017059,477.771423 290.214844,476.210693 
            z"/>
            <path fill="#0E3496" opacity="1.000000" stroke="none" 
                d="
            M201.830185,488.126373 
                C190.197205,470.233887 198.809906,449.347870 219.030151,445.601959 
                C232.650513,443.078674 246.807068,453.372040 249.210236,467.546173 
                C251.618484,481.750305 241.667389,495.920227 227.770782,498.051270 
                C217.402969,499.641144 208.787659,496.521576 201.830185,488.126373 
            M205.799728,465.728668 
                C202.258011,479.793091 212.124100,492.486816 225.056717,490.504700 
                C234.455551,489.064178 240.711884,482.283142 241.176285,473.033142 
                C241.651215,463.573334 235.833939,455.643738 226.823227,453.468414 
                C218.365128,451.426453 210.349411,455.859802 205.799728,465.728668 
            z"/>
            <path fill="#0E3495" opacity="1.000000" stroke="none" 
                d="
            M464.075531,465.000549 
                C464.075531,458.531952 464.075531,452.563232 464.075531,446.257050 
                C470.973602,446.257050 477.629150,445.652161 484.120850,446.424438 
                C490.831024,447.222748 495.863495,451.171387 497.376892,458.227600 
                C498.874115,465.208374 497.498657,471.464355 491.770721,476.282776 
                C491.157593,476.798553 490.533325,477.301147 489.629730,478.043671 
                C493.669220,484.503296 497.612823,490.809540 501.586639,497.164154 
                C494.311554,499.154236 493.193695,498.759552 489.430054,492.972656 
                C487.887360,490.600647 486.358551,488.219604 484.822968,485.842957 
                C480.729309,479.507050 480.729218,479.507111 472.417297,480.179443 
                C472.417297,485.864777 472.417297,491.614197 472.417297,497.685394 
                C469.569336,497.685394 467.158966,497.685394 464.075531,497.685394 
                C464.075531,487.018066 464.075531,476.259247 464.075531,465.000549 
            M472.162628,459.622925 
                C472.162628,463.581390 472.162628,467.539886 472.162628,471.809143 
                C478.131165,471.685944 484.503448,473.891479 487.841858,467.692505 
                C489.237671,465.100739 489.264069,460.551208 487.904022,457.937073 
                C484.562958,451.515411 478.052490,454.522919 472.411224,453.815094 
                C472.312012,455.749817 472.237335,457.205963 472.162628,459.622925 
            z"/>
            <path fill="#103596" opacity="1.000000" stroke="none" 
                d="
            M103.395790,497.897156 
                C102.699020,490.043213 102.350243,482.289398 102.250008,474.532318 
                C102.129822,465.230255 102.221619,455.925476 102.221619,446.282227 
                C113.918144,446.282227 125.112930,446.282227 136.544037,446.282227 
                C136.544037,448.551300 136.544037,450.659485 136.544037,453.540588 
                C127.989273,453.540588 119.439362,453.540588 110.637451,453.540588 
                C110.637451,458.703796 110.637451,463.098328 110.637451,468.004333 
                C118.410591,468.004333 125.994888,468.004333 133.620270,468.004333 
                C133.620270,470.778076 133.620270,473.038422 133.620270,475.869873 
                C125.798363,475.869873 118.225601,475.869873 110.519241,475.869873 
                C110.519241,480.751251 110.519241,485.058533 110.519241,489.901337 
                C119.482521,489.901337 128.380676,489.901337 137.521149,489.901337 
                C137.521149,492.699646 137.521149,494.969025 137.521149,497.995819 
                C126.345695,497.995819 115.099785,497.995819 103.395790,497.897156 
            z"/>
            <path fill="#0F3496" opacity="1.000000" stroke="none" 
                d="
            M430.011353,498.016602 
                C425.546844,498.016602 421.580292,498.016602 417.394287,498.016602 
                C417.394287,480.553253 417.394287,463.494751 417.394287,446.188110 
                C428.807739,446.188110 439.902252,446.188110 451.303894,446.188110 
                C451.303894,448.495941 451.303894,450.732727 451.303894,453.697205 
                C442.601196,453.697205 434.023285,453.697205 425.335480,453.697205 
                C425.335480,458.729828 425.335480,463.042969 425.335480,467.835266 
                C433.031708,467.835266 440.607300,467.835266 448.448303,467.835266 
                C448.448303,470.562805 448.448303,472.817841 448.448303,475.675354 
                C440.822296,475.675354 433.260895,475.675354 425.455627,475.675354 
                C425.455627,480.693695 425.455627,485.123413 425.455627,489.873047 
                C434.269440,489.873047 443.067047,489.873047 452.236023,489.873047 
                C452.236023,492.568665 452.236023,494.958527 452.236023,498.016602 
                C445.032318,498.016602 437.770844,498.016602 430.011353,498.016602 
            z"/>
            <path fill="#0B3194" opacity="1.000000" stroke="none" 
                d="
            M327.960297,449.178223 
                C328.759644,447.781097 329.544708,446.086609 330.358612,446.072601 
                C340.803101,445.893372 351.251709,445.954254 361.934448,445.954254 
                C361.934448,448.579224 361.934448,450.820587 361.934448,453.652588 
                C353.336578,453.652588 344.917786,453.652588 336.213867,453.652588 
                C336.213867,458.625244 336.213867,463.013519 336.213867,467.911682 
                C343.858154,467.911682 351.414642,467.911682 359.101929,467.911682 
                C359.101929,470.697632 359.101929,472.976410 359.101929,475.657135 
                C351.508636,475.657135 344.098480,475.657135 336.304993,475.657135 
                C336.304993,480.440521 336.304993,484.842651 336.304993,489.809753 
                C344.914551,489.809753 353.798370,489.809753 362.921021,489.809753 
                C362.921021,492.753265 362.921021,495.144470 362.921021,497.775330 
                C351.374237,497.775330 339.956146,497.775330 327.959412,497.775330 
                C327.959412,481.752777 327.959412,465.707336 327.960297,449.178223 
            z"/>
            <path fill="#0F3596" opacity="1.000000" stroke="none" 
                d="
            M158.405487,494.669830 
                C145.811707,485.550385 142.654617,468.986786 150.834076,456.342712 
                C158.251266,444.877075 173.273163,441.917847 187.166382,449.572571 
                C186.231094,451.874786 185.263245,454.257172 184.144150,457.011871 
                C178.624283,454.146088 173.049408,451.259827 167.098907,454.163818 
                C163.791611,455.777832 160.447495,458.157288 158.258011,461.052429 
                C153.101028,467.871460 153.884827,478.489044 159.289032,484.764954 
                C165.032257,491.434570 174.198349,492.305328 184.761353,486.944092 
                C185.829330,489.123596 186.896057,491.300537 188.148895,493.857269 
                C178.326096,499.899475 168.632523,499.970520 158.405487,494.669830 
            z"/>
            <path fill="#193D9A" opacity="1.000000" stroke="none" 
                d="
            M373.471924,453.901428 
                C372.280792,451.506866 371.540253,449.122986 370.630981,446.196045 
                C383.084167,446.196045 394.333099,446.196045 405.844971,446.196045 
                C405.844971,448.439728 405.844971,450.697174 405.844971,453.466309 
                C401.584229,453.696045 397.358276,453.923889 392.680298,454.176147 
                C392.680298,468.759460 392.680298,483.156403 392.680298,497.790863 
                C389.771118,497.790863 387.341492,497.790863 384.335236,497.790863 
                C384.335236,483.177765 384.335236,468.624054 384.335236,453.912109 
                C380.484802,453.912109 377.203644,453.912109 373.471924,453.901428 
            z"/>
            <path fill="#FBFCFD" opacity="1.000000" stroke="none" 
                d="
            M205.924286,465.343506 
                C210.349411,455.859802 218.365128,451.426453 226.823227,453.468414 
                C235.833939,455.643738 241.651215,463.573334 241.176285,473.033142 
                C240.711884,482.283142 234.455551,489.064178 225.056717,490.504700 
                C212.124100,492.486816 202.258011,479.793091 205.924286,465.343506 
            z"/>
            <path fill="#F8F9FC" opacity="1.000000" stroke="none" 
                d="
            M472.162659,459.142517 
                C472.237335,457.205963 472.312012,455.749817 472.411224,453.815094 
                C478.052490,454.522919 484.562958,451.515411 487.904022,457.937073 
                C489.264069,460.551208 489.237671,465.100739 487.841858,467.692505 
                C484.503448,473.891479 478.131165,471.685944 472.162628,471.809143 
                C472.162628,467.539886 472.162628,463.581390 472.162659,459.142517 
            z"/>
</svg>